<mxfile host="app.diagrams.net" modified="2023-05-15T01:19:49.864Z" agent="Mozilla/5.0 (Windows NT 10.0; Win64; x64) AppleWebKit/537.36 (KHTML, like Gecko) Chrome/113.0.0.0 Safari/537.36 Edg/113.0.1774.42" etag="eFlIMBhnzqvBmZpf-H6A" version="21.3.0" type="google">
  <diagram name="Page-1" id="JuRhX8pqiqkoGfWSm6W-">
    <mxGraphModel grid="1" page="1" gridSize="10" guides="1" tooltips="1" connect="1" arrows="1" fold="1" pageScale="1" pageWidth="850" pageHeight="1100" math="0" shadow="0">
      <root>
        <mxCell id="0" />
        <mxCell id="1" parent="0" />
        <mxCell id="1eTp65INAL2zRBX8jzJz-1" value="" style="rounded=0;whiteSpace=wrap;html=1;" vertex="1" parent="1">
          <mxGeometry x="435" y="270" width="10" height="110" as="geometry" />
        </mxCell>
        <mxCell id="nAZ1idy96ejT6zWpIp0l-5" value="2. Registrar (información)" style="text;html=1;align=center;verticalAlign=middle;resizable=0;points=[];autosize=1;strokeColor=none;fillColor=none;" vertex="1" parent="1">
          <mxGeometry x="450" y="270" width="160" height="30" as="geometry" />
        </mxCell>
        <mxCell id="1eTp65INAL2zRBX8jzJz-2" value="" style="endArrow=none;dashed=1;html=1;rounded=0;" edge="1" parent="1" source="1eTp65INAL2zRBX8jzJz-17" target="1eTp65INAL2zRBX8jzJz-1">
          <mxGeometry width="50" height="50" relative="1" as="geometry">
            <mxPoint x="440" y="640" as="sourcePoint" />
            <mxPoint x="440" y="240" as="targetPoint" />
          </mxGeometry>
        </mxCell>
        <mxCell id="W2v8N_zR9t_zHkpTGCR_-4" value="Usuario" style="rounded=0;whiteSpace=wrap;html=1;" vertex="1" parent="1">
          <mxGeometry x="180" y="180" width="120" height="60" as="geometry" />
        </mxCell>
        <mxCell id="W2v8N_zR9t_zHkpTGCR_-6" value="" style="endArrow=none;dashed=1;html=1;rounded=0;" edge="1" parent="1" source="1eTp65INAL2zRBX8jzJz-1">
          <mxGeometry width="50" height="50" relative="1" as="geometry">
            <mxPoint x="440" y="640" as="sourcePoint" />
            <mxPoint x="440" y="240" as="targetPoint" />
          </mxGeometry>
        </mxCell>
        <mxCell id="W2v8N_zR9t_zHkpTGCR_-7" value="Interfaz" style="rounded=0;whiteSpace=wrap;html=1;" vertex="1" parent="1">
          <mxGeometry x="380" y="180" width="120" height="60" as="geometry" />
        </mxCell>
        <mxCell id="W2v8N_zR9t_zHkpTGCR_-8" value="" style="endArrow=none;dashed=1;html=1;rounded=0;" edge="1" parent="1" source="1eTp65INAL2zRBX8jzJz-20">
          <mxGeometry width="50" height="50" relative="1" as="geometry">
            <mxPoint x="640" y="640" as="sourcePoint" />
            <mxPoint x="640" y="240" as="targetPoint" />
          </mxGeometry>
        </mxCell>
        <mxCell id="W2v8N_zR9t_zHkpTGCR_-9" value="Sistema de competencias" style="rounded=0;whiteSpace=wrap;html=1;" vertex="1" parent="1">
          <mxGeometry x="580" y="180" width="120" height="60" as="geometry" />
        </mxCell>
        <mxCell id="W2v8N_zR9t_zHkpTGCR_-10" value="" style="endArrow=none;dashed=1;html=1;rounded=0;" edge="1" parent="1">
          <mxGeometry width="50" height="50" relative="1" as="geometry">
            <mxPoint x="840" y="730" as="sourcePoint" />
            <mxPoint x="840" y="240" as="targetPoint" />
          </mxGeometry>
        </mxCell>
        <mxCell id="W2v8N_zR9t_zHkpTGCR_-11" value="Sistema de gestion de usuarios" style="rounded=0;whiteSpace=wrap;html=1;" vertex="1" parent="1">
          <mxGeometry x="780" y="180" width="120" height="60" as="geometry" />
        </mxCell>
        <mxCell id="W2v8N_zR9t_zHkpTGCR_-12" value="" style="endArrow=none;dashed=1;html=1;rounded=0;" edge="1" parent="1" source="1eTp65INAL2zRBX8jzJz-27">
          <mxGeometry width="50" height="50" relative="1" as="geometry">
            <mxPoint x="1040" y="640" as="sourcePoint" />
            <mxPoint x="1040" y="240" as="targetPoint" />
          </mxGeometry>
        </mxCell>
        <mxCell id="W2v8N_zR9t_zHkpTGCR_-13" value="Sistema de pago" style="rounded=0;whiteSpace=wrap;html=1;" vertex="1" parent="1">
          <mxGeometry x="980" y="180" width="120" height="60" as="geometry" />
        </mxCell>
        <mxCell id="nAZ1idy96ejT6zWpIp0l-1" value="" style="endArrow=classic;html=1;rounded=0;" edge="1" parent="1">
          <mxGeometry width="50" height="50" relative="1" as="geometry">
            <mxPoint x="240" y="270" as="sourcePoint" />
            <mxPoint x="440" y="270" as="targetPoint" />
          </mxGeometry>
        </mxCell>
        <mxCell id="nAZ1idy96ejT6zWpIp0l-4" value="" style="endArrow=classic;html=1;rounded=0;exitX=-0.019;exitY=0.667;exitDx=0;exitDy=0;exitPerimeter=0;" edge="1" parent="1" source="nAZ1idy96ejT6zWpIp0l-5">
          <mxGeometry width="50" height="50" relative="1" as="geometry">
            <mxPoint x="440" y="290" as="sourcePoint" />
            <mxPoint x="840" y="290" as="targetPoint" />
          </mxGeometry>
        </mxCell>
        <mxCell id="W2v8N_zR9t_zHkpTGCR_-14" value="" style="endArrow=none;dashed=1;html=1;rounded=0;" edge="1" parent="1" source="1eTp65INAL2zRBX8jzJz-11">
          <mxGeometry width="50" height="50" relative="1" as="geometry">
            <mxPoint x="1240" y="640" as="sourcePoint" />
            <mxPoint x="1240" y="240" as="targetPoint" />
          </mxGeometry>
        </mxCell>
        <mxCell id="1eTp65INAL2zRBX8jzJz-5" value="" style="endArrow=none;dashed=1;html=1;rounded=0;" edge="1" parent="1" source="1eTp65INAL2zRBX8jzJz-14" target="1eTp65INAL2zRBX8jzJz-4">
          <mxGeometry width="50" height="50" relative="1" as="geometry">
            <mxPoint x="240" y="640" as="sourcePoint" />
            <mxPoint x="240" y="240" as="targetPoint" />
          </mxGeometry>
        </mxCell>
        <mxCell id="W2v8N_zR9t_zHkpTGCR_-15" value="BD" style="rounded=0;whiteSpace=wrap;html=1;" vertex="1" parent="1">
          <mxGeometry x="1180" y="180" width="120" height="60" as="geometry" />
        </mxCell>
        <mxCell id="1eTp65INAL2zRBX8jzJz-4" value="" style="rounded=0;whiteSpace=wrap;html=1;" vertex="1" parent="1">
          <mxGeometry x="235" y="270" width="10" height="20" as="geometry" />
        </mxCell>
        <mxCell id="W2v8N_zR9t_zHkpTGCR_-1" value="" style="endArrow=none;dashed=1;html=1;rounded=0;" edge="1" parent="1" source="1eTp65INAL2zRBX8jzJz-4">
          <mxGeometry width="50" height="50" relative="1" as="geometry">
            <mxPoint x="240" y="640" as="sourcePoint" />
            <mxPoint x="240" y="240" as="targetPoint" />
          </mxGeometry>
        </mxCell>
        <mxCell id="nAZ1idy96ejT6zWpIp0l-2" value="1. Registrar (información)" style="text;html=1;align=center;verticalAlign=middle;resizable=0;points=[];autosize=1;strokeColor=none;fillColor=none;" vertex="1" parent="1">
          <mxGeometry x="237" y="248" width="160" height="30" as="geometry" />
        </mxCell>
        <mxCell id="nAZ1idy96ejT6zWpIp0l-12" value="" style="html=1;points=[];perimeter=orthogonalPerimeter;outlineConnect=0;targetShapes=umlLifeline;portConstraint=eastwest;newEdgeStyle={&quot;edgeStyle&quot;:&quot;elbowEdgeStyle&quot;,&quot;elbow&quot;:&quot;vertical&quot;,&quot;curved&quot;:0,&quot;rounded&quot;:0};" vertex="1" parent="1">
          <mxGeometry x="840" y="290" width="10" height="90" as="geometry" />
        </mxCell>
        <mxCell id="nAZ1idy96ejT6zWpIp0l-13" value="3. CrearUsuario" style="html=1;align=left;spacingLeft=2;endArrow=block;rounded=0;edgeStyle=orthogonalEdgeStyle;curved=0;rounded=0;" edge="1" parent="1" target="nAZ1idy96ejT6zWpIp0l-12">
          <mxGeometry x="0.1" y="5" relative="1" as="geometry">
            <mxPoint x="850" y="290" as="sourcePoint" />
            <Array as="points">
              <mxPoint x="850" y="300" />
              <mxPoint x="885" y="300" />
              <mxPoint x="885" y="320" />
            </Array>
            <mxPoint x="885" y="278" as="targetPoint" />
            <mxPoint as="offset" />
          </mxGeometry>
        </mxCell>
        <mxCell id="nAZ1idy96ejT6zWpIp0l-14" value="" style="endArrow=classic;html=1;rounded=0;exitX=-0.019;exitY=0.667;exitDx=0;exitDy=0;exitPerimeter=0;" edge="1" parent="1">
          <mxGeometry width="50" height="50" relative="1" as="geometry">
            <mxPoint x="850" y="340" as="sourcePoint" />
            <mxPoint x="1243" y="340" as="targetPoint" />
          </mxGeometry>
        </mxCell>
        <mxCell id="nAZ1idy96ejT6zWpIp0l-15" value="6. Guardar usuario" style="edgeLabel;html=1;align=center;verticalAlign=middle;resizable=0;points=[];" connectable="0" vertex="1" parent="nAZ1idy96ejT6zWpIp0l-14">
          <mxGeometry x="-0.2265" y="4" relative="1" as="geometry">
            <mxPoint x="-12" y="-6" as="offset" />
          </mxGeometry>
        </mxCell>
        <mxCell id="nAZ1idy96ejT6zWpIp0l-16" value="7. Ok" style="html=1;verticalAlign=bottom;endArrow=open;dashed=1;endSize=8;edgeStyle=elbowEdgeStyle;elbow=vertical;curved=0;rounded=0;" edge="1" parent="1" target="nAZ1idy96ejT6zWpIp0l-12">
          <mxGeometry relative="1" as="geometry">
            <mxPoint x="1240" y="350" as="sourcePoint" />
            <mxPoint x="770" y="380" as="targetPoint" />
            <Array as="points">
              <mxPoint x="1010" y="360" />
            </Array>
          </mxGeometry>
        </mxCell>
        <mxCell id="1eTp65INAL2zRBX8jzJz-11" value="" style="rounded=0;whiteSpace=wrap;html=1;" vertex="1" parent="1">
          <mxGeometry x="1235" y="340" width="10" height="40" as="geometry" />
        </mxCell>
        <mxCell id="nAZ1idy96ejT6zWpIp0l-17" value="8. OK" style="html=1;verticalAlign=bottom;endArrow=open;dashed=1;endSize=8;edgeStyle=elbowEdgeStyle;elbow=vertical;curved=0;rounded=0;entryX=0.8;entryY=0.927;entryDx=0;entryDy=0;entryPerimeter=0;" edge="1" parent="1" source="nAZ1idy96ejT6zWpIp0l-12" target="1eTp65INAL2zRBX8jzJz-1">
          <mxGeometry relative="1" as="geometry">
            <mxPoint x="825" y="360" as="sourcePoint" />
            <mxPoint x="450" y="370" as="targetPoint" />
            <Array as="points" />
          </mxGeometry>
        </mxCell>
        <mxCell id="1eTp65INAL2zRBX8jzJz-15" value="" style="endArrow=none;dashed=1;html=1;rounded=0;" edge="1" parent="1" target="1eTp65INAL2zRBX8jzJz-14">
          <mxGeometry width="50" height="50" relative="1" as="geometry">
            <mxPoint x="240" y="730" as="sourcePoint" />
            <mxPoint x="240" y="290" as="targetPoint" />
          </mxGeometry>
        </mxCell>
        <mxCell id="1eTp65INAL2zRBX8jzJz-14" value="" style="rounded=0;whiteSpace=wrap;html=1;" vertex="1" parent="1">
          <mxGeometry x="235" y="400" width="10" height="130" as="geometry" />
        </mxCell>
        <mxCell id="1eTp65INAL2zRBX8jzJz-12" value="" style="endArrow=none;dashed=1;html=1;rounded=0;" edge="1" parent="1" source="1eTp65INAL2zRBX8jzJz-49" target="1eTp65INAL2zRBX8jzJz-11">
          <mxGeometry width="50" height="50" relative="1" as="geometry">
            <mxPoint x="1240" y="640" as="sourcePoint" />
            <mxPoint x="1240" y="240" as="targetPoint" />
          </mxGeometry>
        </mxCell>
        <mxCell id="1eTp65INAL2zRBX8jzJz-16" value="" style="endArrow=classic;html=1;rounded=0;exitX=0.75;exitY=0;exitDx=0;exitDy=0;" edge="1" parent="1" source="1eTp65INAL2zRBX8jzJz-14">
          <mxGeometry width="50" height="50" relative="1" as="geometry">
            <mxPoint x="570" y="500" as="sourcePoint" />
            <mxPoint x="440" y="400" as="targetPoint" />
          </mxGeometry>
        </mxCell>
        <mxCell id="1eTp65INAL2zRBX8jzJz-18" value="" style="endArrow=none;dashed=1;html=1;rounded=0;" edge="1" parent="1" target="1eTp65INAL2zRBX8jzJz-17">
          <mxGeometry width="50" height="50" relative="1" as="geometry">
            <mxPoint x="440" y="730" as="sourcePoint" />
            <mxPoint x="440" y="380" as="targetPoint" />
          </mxGeometry>
        </mxCell>
        <mxCell id="1eTp65INAL2zRBX8jzJz-17" value="" style="rounded=0;whiteSpace=wrap;html=1;" vertex="1" parent="1">
          <mxGeometry x="435" y="400" width="10" height="270" as="geometry" />
        </mxCell>
        <mxCell id="1eTp65INAL2zRBX8jzJz-19" value="9. RegistrarACompetencia (info)" style="text;html=1;align=center;verticalAlign=middle;resizable=0;points=[];autosize=1;strokeColor=none;fillColor=none;" vertex="1" parent="1">
          <mxGeometry x="245" y="376" width="190" height="30" as="geometry" />
        </mxCell>
        <mxCell id="1eTp65INAL2zRBX8jzJz-21" value="" style="endArrow=none;dashed=1;html=1;rounded=0;" edge="1" parent="1" target="1eTp65INAL2zRBX8jzJz-20">
          <mxGeometry width="50" height="50" relative="1" as="geometry">
            <mxPoint x="640" y="730" as="sourcePoint" />
            <mxPoint x="640" y="240" as="targetPoint" />
          </mxGeometry>
        </mxCell>
        <mxCell id="1eTp65INAL2zRBX8jzJz-20" value="" style="rounded=0;whiteSpace=wrap;html=1;" vertex="1" parent="1">
          <mxGeometry x="635" y="410" width="10" height="260" as="geometry" />
        </mxCell>
        <mxCell id="1eTp65INAL2zRBX8jzJz-22" value="" style="endArrow=classic;html=1;rounded=0;entryX=0;entryY=0;entryDx=0;entryDy=0;" edge="1" parent="1" target="1eTp65INAL2zRBX8jzJz-20">
          <mxGeometry width="50" height="50" relative="1" as="geometry">
            <mxPoint x="450" y="410" as="sourcePoint" />
            <mxPoint x="860" y="450" as="targetPoint" />
          </mxGeometry>
        </mxCell>
        <mxCell id="1eTp65INAL2zRBX8jzJz-23" value="&lt;font style=&quot;font-size: 11px;&quot;&gt;10. RegistrarACompetencia (info)&lt;/font&gt;" style="text;html=1;align=center;verticalAlign=middle;resizable=0;points=[];autosize=1;strokeColor=none;fillColor=none;" vertex="1" parent="1">
          <mxGeometry x="445" y="387" width="190" height="30" as="geometry" />
        </mxCell>
        <mxCell id="1eTp65INAL2zRBX8jzJz-24" value="" style="endArrow=classic;html=1;rounded=0;" edge="1" parent="1">
          <mxGeometry width="50" height="50" relative="1" as="geometry">
            <mxPoint x="645" y="420" as="sourcePoint" />
            <mxPoint x="645" y="440" as="targetPoint" />
            <Array as="points">
              <mxPoint x="670" y="420" />
              <mxPoint x="670" y="440" />
            </Array>
          </mxGeometry>
        </mxCell>
        <mxCell id="1eTp65INAL2zRBX8jzJz-25" value="11. ValidarAptitudes(info)" style="text;html=1;align=center;verticalAlign=middle;resizable=0;points=[];autosize=1;strokeColor=none;fillColor=none;fontSize=11;" vertex="1" parent="1">
          <mxGeometry x="662" y="415" width="150" height="30" as="geometry" />
        </mxCell>
        <mxCell id="1eTp65INAL2zRBX8jzJz-28" value="" style="endArrow=none;dashed=1;html=1;rounded=0;" edge="1" parent="1" target="1eTp65INAL2zRBX8jzJz-27">
          <mxGeometry width="50" height="50" relative="1" as="geometry">
            <mxPoint x="1040" y="730" as="sourcePoint" />
            <mxPoint x="1040" y="240" as="targetPoint" />
          </mxGeometry>
        </mxCell>
        <mxCell id="1eTp65INAL2zRBX8jzJz-27" value="" style="rounded=0;whiteSpace=wrap;html=1;" vertex="1" parent="1">
          <mxGeometry x="1035" y="540" width="10" height="38" as="geometry" />
        </mxCell>
        <mxCell id="1eTp65INAL2zRBX8jzJz-35" value="" style="endArrow=classic;html=1;rounded=0;dashed=1;" edge="1" parent="1">
          <mxGeometry width="50" height="50" relative="1" as="geometry">
            <mxPoint x="630" y="463" as="sourcePoint" />
            <mxPoint x="450" y="463" as="targetPoint" />
          </mxGeometry>
        </mxCell>
        <mxCell id="1eTp65INAL2zRBX8jzJz-36" value="&lt;font style=&quot;font-size: 11px;&quot;&gt;12. SolicitaPago&lt;/font&gt;" style="text;html=1;align=center;verticalAlign=middle;resizable=0;points=[];autosize=1;strokeColor=none;fillColor=none;" vertex="1" parent="1">
          <mxGeometry x="490" y="438" width="100" height="30" as="geometry" />
        </mxCell>
        <mxCell id="1eTp65INAL2zRBX8jzJz-37" value="" style="endArrow=classic;html=1;rounded=0;entryX=0.1;entryY=0.635;entryDx=0;entryDy=0;entryPerimeter=0;" edge="1" parent="1">
          <mxGeometry width="50" height="50" relative="1" as="geometry">
            <mxPoint x="250" y="521" as="sourcePoint" />
            <mxPoint x="436" y="518.95" as="targetPoint" />
          </mxGeometry>
        </mxCell>
        <mxCell id="1eTp65INAL2zRBX8jzJz-38" value="&lt;font style=&quot;font-size: 11px;&quot;&gt;14. RealizarPagoInscripción(data)&lt;/font&gt;" style="text;html=1;align=center;verticalAlign=middle;resizable=0;points=[];autosize=1;strokeColor=none;fillColor=none;" vertex="1" parent="1">
          <mxGeometry x="245" y="496" width="190" height="30" as="geometry" />
        </mxCell>
        <mxCell id="1eTp65INAL2zRBX8jzJz-39" value="" style="endArrow=classic;html=1;rounded=0;entryX=0.8;entryY=0.573;entryDx=0;entryDy=0;entryPerimeter=0;dashed=1;" edge="1" parent="1">
          <mxGeometry width="50" height="50" relative="1" as="geometry">
            <mxPoint x="435" y="480" as="sourcePoint" />
            <mxPoint x="248" y="480" as="targetPoint" />
          </mxGeometry>
        </mxCell>
        <mxCell id="1eTp65INAL2zRBX8jzJz-40" value="&lt;font style=&quot;font-size: 11px;&quot;&gt;13. SolicitaPago&lt;/font&gt;" style="text;html=1;align=center;verticalAlign=middle;resizable=0;points=[];autosize=1;strokeColor=none;fillColor=none;" vertex="1" parent="1">
          <mxGeometry x="280" y="460" width="100" height="30" as="geometry" />
        </mxCell>
        <mxCell id="1eTp65INAL2zRBX8jzJz-42" value="" style="endArrow=classic;html=1;rounded=0;" edge="1" parent="1">
          <mxGeometry width="50" height="50" relative="1" as="geometry">
            <mxPoint x="450" y="540" as="sourcePoint" />
            <mxPoint x="1030" y="540" as="targetPoint" />
          </mxGeometry>
        </mxCell>
        <mxCell id="1eTp65INAL2zRBX8jzJz-44" value="&lt;font style=&quot;font-size: 11px;&quot;&gt;15. RealizarPagoInscripción(data)&lt;/font&gt;" style="text;html=1;align=center;verticalAlign=middle;resizable=0;points=[];autosize=1;strokeColor=none;fillColor=none;" vertex="1" parent="1">
          <mxGeometry x="645" y="514" width="190" height="30" as="geometry" />
        </mxCell>
        <mxCell id="1eTp65INAL2zRBX8jzJz-45" value="" style="endArrow=classic;html=1;rounded=0;dashed=1;" edge="1" parent="1">
          <mxGeometry width="50" height="50" relative="1" as="geometry">
            <mxPoint x="1030" y="563.5" as="sourcePoint" />
            <mxPoint x="650" y="565" as="targetPoint" />
          </mxGeometry>
        </mxCell>
        <mxCell id="1eTp65INAL2zRBX8jzJz-46" value="&lt;font style=&quot;font-size: 11px;&quot;&gt;16. OK&lt;/font&gt;" style="text;html=1;align=center;verticalAlign=middle;resizable=0;points=[];autosize=1;strokeColor=none;fillColor=none;" vertex="1" parent="1">
          <mxGeometry x="740" y="542" width="60" height="30" as="geometry" />
        </mxCell>
        <mxCell id="1eTp65INAL2zRBX8jzJz-48" value="" style="endArrow=classic;html=1;rounded=0;" edge="1" parent="1">
          <mxGeometry width="50" height="50" relative="1" as="geometry">
            <mxPoint x="650" y="590" as="sourcePoint" />
            <mxPoint x="1240" y="590" as="targetPoint" />
          </mxGeometry>
        </mxCell>
        <mxCell id="1eTp65INAL2zRBX8jzJz-50" value="" style="endArrow=none;dashed=1;html=1;rounded=0;" edge="1" parent="1" target="1eTp65INAL2zRBX8jzJz-49">
          <mxGeometry width="50" height="50" relative="1" as="geometry">
            <mxPoint x="1240" y="730" as="sourcePoint" />
            <mxPoint x="1240" y="380" as="targetPoint" />
          </mxGeometry>
        </mxCell>
        <mxCell id="1eTp65INAL2zRBX8jzJz-49" value="" style="rounded=0;whiteSpace=wrap;html=1;" vertex="1" parent="1">
          <mxGeometry x="1235" y="590" width="10" height="40" as="geometry" />
        </mxCell>
        <mxCell id="1eTp65INAL2zRBX8jzJz-51" value="&lt;font style=&quot;font-size: 11px;&quot;&gt;17. RegistrarInscripción&lt;/font&gt;" style="text;html=1;align=center;verticalAlign=middle;resizable=0;points=[];autosize=1;strokeColor=none;fillColor=none;" vertex="1" parent="1">
          <mxGeometry x="865" y="568" width="140" height="30" as="geometry" />
        </mxCell>
        <mxCell id="1eTp65INAL2zRBX8jzJz-52" value="" style="endArrow=classic;html=1;rounded=0;dashed=1;" edge="1" parent="1">
          <mxGeometry width="50" height="50" relative="1" as="geometry">
            <mxPoint x="1235" y="620" as="sourcePoint" />
            <mxPoint x="650" y="622" as="targetPoint" />
          </mxGeometry>
        </mxCell>
        <mxCell id="1eTp65INAL2zRBX8jzJz-53" value="&lt;font style=&quot;font-size: 11px;&quot;&gt;18. OK&lt;/font&gt;" style="text;html=1;align=center;verticalAlign=middle;resizable=0;points=[];autosize=1;strokeColor=none;fillColor=none;" vertex="1" parent="1">
          <mxGeometry x="860" y="600" width="60" height="30" as="geometry" />
        </mxCell>
        <mxCell id="1eTp65INAL2zRBX8jzJz-54" value="" style="endArrow=classic;html=1;rounded=0;dashed=1;" edge="1" parent="1">
          <mxGeometry width="50" height="50" relative="1" as="geometry">
            <mxPoint x="632.5" y="650" as="sourcePoint" />
            <mxPoint x="450" y="650" as="targetPoint" />
          </mxGeometry>
        </mxCell>
        <mxCell id="1eTp65INAL2zRBX8jzJz-55" value="&lt;font style=&quot;font-size: 11px;&quot;&gt;19. OK&lt;/font&gt;" style="text;html=1;align=center;verticalAlign=middle;resizable=0;points=[];autosize=1;strokeColor=none;fillColor=none;" vertex="1" parent="1">
          <mxGeometry x="491" y="627" width="60" height="30" as="geometry" />
        </mxCell>
      </root>
    </mxGraphModel>
  </diagram>
</mxfile>
